<svg xmlns="http://www.w3.org/2000/svg" fill="#c29f51" version="1.1" viewBox="-5.0 -10.0 110.0 135.0">
 <path d="m73.211 68.371 3.8047 14.203-7.0586 1.8906c-0.83203 0.22266-1.3281 1.082-1.1055 1.9141 0.22266 0.83203 1.082 1.3281 1.9141 1.1055l17.141-4.5938c0.83203-0.22266 1.3281-1.0781 1.1016-1.9141-0.22266-0.83203-1.0781-1.3281-1.9141-1.1016l-7.0586 1.8906-3.8047-14.203c4.793-1.9492 7.6328-7.0703 6.5898-12.273-2.0156-10.086-5.0859-25.422-5.0859-25.422-0.085937-0.42578-0.33984-0.79688-0.70703-1.0234-0.36719-0.22656-0.8125-0.29297-1.2305-0.17969l-21.664 5.8047c-0.41406 0.10938-0.76562 0.39062-0.97266 0.76953-0.20312 0.38281-0.23828 0.83203-0.10156 1.2383 0 0 5.0117 14.82 8.3086 24.562 1.6992 5.0234 6.7188 8.0391 11.844 7.332zm-49.441-0.80859-3.8047 14.203-7.0586-1.8906c-0.83594-0.22656-1.6914 0.26953-1.9141 1.1016-0.22656 0.83594 0.26953 1.6914 1.1016 1.9141l17.141 4.5938c0.83203 0.22266 1.6914-0.27344 1.9141-1.1055 0.22266-0.83203-0.27344-1.6914-1.1055-1.9141l-7.0586-1.8906 3.8047-14.203c5.125 0.70703 10.145-2.3086 11.844-7.332 3.2969-9.7422 8.3086-24.562 8.3086-24.562 0.13672-0.40625 0.10156-0.85547-0.10156-1.2383-0.20703-0.37891-0.55859-0.66016-0.97266-0.76953l-21.664-5.8047c-0.41797-0.11328-0.86328-0.046874-1.2305 0.17969-0.36719 0.22656-0.62109 0.59766-0.70703 1.0234 0 0-3.0703 15.336-5.0859 25.422-1.043 5.2031 1.7969 10.324 6.5898 12.273zm-1.4414-22.086c2.1758-0.85547 5.3203-1.2969 9.125 0.41797 4.0078 1.8008 8.0547-0.23438 9.3398-0.99609l2.6523-7.8438-18.445-4.9414zm55.344 0-2.6719-13.363-18.445 4.9414 2.6523 7.8438c1.2852 0.76172 5.332 2.7969 9.3398 0.99609 3.8047-1.7148 6.9492-1.2734 9.125-0.41797zm-41.016-22.211 5.832 5.2188c0.64453 0.57422 1.6328 0.51953 2.207-0.125 0.57422-0.64062 0.51953-1.6289-0.125-2.2031l-5.8281-5.2188c-0.64453-0.57422-1.6328-0.51953-2.207 0.12109-0.57422 0.64453-0.51953 1.6328 0.12109 2.207zm24.602-2.3281-5.8281 5.2188c-0.64453 0.57422-0.69922 1.5625-0.125 2.2031 0.57422 0.64453 1.5625 0.69922 2.207 0.125l5.832-5.2188c0.64062-0.57422 0.69531-1.5625 0.12109-2.207-0.57422-0.64062-1.5625-0.69531-2.207-0.12109zm-12.82-6.9141v5.2188c0 0.86328 0.69922 1.5625 1.5625 1.5625s1.5625-0.69922 1.5625-1.5625v-5.2188c0-0.85938-0.69922-1.5625-1.5625-1.5625s-1.5625 0.70312-1.5625 1.5625z" fill-rule="evenodd"/></svg>