<svg xmlns="http://www.w3.org/2000/svg" version="1.1" viewBox="-5.0 -10.0 110.0 135.0">
 <path d="m87.5 75c0 3.4531-2.7969 6.25-6.25 6.25h-62.5c-3.4531 0-6.25-2.7969-6.25-6.25s2.7969-6.25 6.25-6.25h62.5c3.4531 0 6.25 2.7969 6.25 6.25zm-6.25-31.25h-62.5c-3.4531 0-6.25 2.7969-6.25 6.25s2.7969 6.25 6.25 6.25h62.5c3.4531 0 6.25-2.7969 6.25-6.25s-2.7969-6.25-6.25-6.25zm-62.5-12.5h62.5c3.4531 0 6.25-2.7969 6.25-6.25s-2.7969-6.25-6.25-6.25h-62.5c-3.4531 0-6.25 2.7969-6.25 6.25s2.7969 6.25 6.25 6.25z"/>
</svg>