<svg xmlns="http://www.w3.org/2000/svg" fill="#c29f51" version="1.1" viewBox="-5.0 -10.0 110.0 135.0">
 <path d="m78.945 10.652c-0.42187-0.31641-0.95312-0.44922-1.4766-0.375-0.51953 0.078125-0.99219 0.35938-1.3047 0.78125l-10.582 14.223h-42.324c-1.5586 0.003906-2.9688 0.91797-3.6172 2.3359-0.64453 1.418-0.40234 3.0781 0.61719 4.2578l25.832 29.871c0.29297 0.32422 0.63672 0.60156 1.0156 0.8125v23.461h-11.922c-1.1016 0-1.9922 0.89062-1.9922 1.9922 0 1.1016 0.89062 1.9922 1.9922 1.9922h27.824c1.0977 0 1.9922-0.89062 1.9922-1.9922 0-1.1016-0.89453-1.9922-1.9922-1.9922h-11.926v-23.461c0.38281-0.21094 0.72656-0.48828 1.0156-0.8125l17.758-20.531h0.10547v-0.12109l7.9141-9.1484c1.0586-1.168 1.3281-2.8477 0.69531-4.2852-0.63672-1.4414-2.0625-2.3711-3.6328-2.375h-4.3984l8.8086-11.844v-0.003906c0.65625-0.87891 0.47656-2.125-0.40234-2.7852zm-29.852 18.613h13.527l-5.9219 7.9648h-26.551l-6.8906-7.9648zm0 29.871-4.3945-5.0742c0.12891 0.0625 0.27344 0.097656 0.41797 0.097656 0.40234 0.003906 0.76953-0.23828 0.92578-0.61328 0.15625-0.37109 0.074219-0.80469-0.21094-1.0898-0.28516-0.28906-0.71875-0.375-1.0898-0.21875-0.375 0.15234-0.62109 0.51953-0.62109 0.92188 0.003906 0.10156 0.023437 0.20312 0.0625 0.30078l-1.1367-1.3125c0.027344 0 0.050781 0.015624 0.078125 0.015624h0.003906c0.39844 0.007813 0.76562-0.22266 0.92969-0.58984 0.16406-0.36719 0.089844-0.79297-0.17969-1.0898-0.27344-0.29297-0.69531-0.39453-1.0742-0.25781-0.375 0.13281-0.63672 0.48047-0.66016 0.88281l-0.83594-0.96875c0.47266-0.078125 0.82031-0.48438 0.82422-0.96094 0-0.55078-0.44141-1-0.99219-1-0.42578 0-0.80078 0.27734-0.92969 0.68359l-0.66016-0.76172c0.42188-0.19531 0.65625-0.65625 0.5625-1.1133s-0.49219-0.78516-0.95703-0.79688c-0.34375 0.003906-0.66406 0.1875-0.83594 0.48828l-0.58984-0.67969c0.26562-0.17969 0.42969-0.47656 0.43359-0.80078 0-0.55078-0.44531-0.99609-0.99609-1-0.27344 0-0.53516 0.11719-0.71875 0.31641l-0.55078-0.63281c0.27734-0.28516 0.35156-0.71094 0.19531-1.0742-0.15625-0.36328-0.51562-0.60156-0.91406-0.59766-0.20313 0.003906-0.39844 0.074218-0.55859 0.19922l-0.59375-0.68359c0.097656-0.15234 0.15234-0.32812 0.16016-0.50781h1.9883-0.003906c-0.007813 0.26953 0.09375 0.52734 0.28125 0.72266 0.1875 0.19141 0.44531 0.30078 0.71484 0.30078s0.52344-0.10938 0.71094-0.30078c0.1875-0.19531 0.28906-0.45312 0.28125-0.72266h1.9883c0 0.54688 0.44531 0.99219 0.99219 0.99219 0.55078 0 0.99609-0.44531 0.99609-0.99219h1.9883-0.003906c-0.007813 0.26953 0.09375 0.52734 0.28125 0.72266 0.1875 0.19141 0.44531 0.30078 0.71484 0.30078 0.26562 0 0.52344-0.10938 0.71094-0.30078 0.1875-0.19531 0.28906-0.45312 0.28125-0.72266h1.9922c0 0.54688 0.44531 0.99219 0.99219 0.99219 0.55078 0 0.99609-0.44531 0.99609-0.99219h1.9883-0.003906c-0.007813 0.26953 0.09375 0.52734 0.28125 0.72266 0.1875 0.19141 0.44531 0.30078 0.71484 0.30078 0.26563 0 0.52344-0.10938 0.71094-0.30078 0.1875-0.19531 0.28906-0.45312 0.28125-0.72266h1.9883c-0.007812 0.26953 0.089844 0.52734 0.27734 0.72266 0.1875 0.19141 0.44531 0.30078 0.71484 0.30078s0.52734-0.10938 0.71484-0.30078c0.1875-0.19531 0.28906-0.45312 0.27734-0.72266h1.9883c-0.007813 0.26953 0.09375 0.52734 0.28125 0.72266 0.1875 0.19141 0.44531 0.30078 0.71094 0.30078 0.26953 0 0.52734-0.10938 0.71484-0.30078 0.1875-0.19531 0.28906-0.45312 0.28125-0.72266h1.9883c0.003906 0.17969 0.058594 0.35547 0.15625 0.50781l-0.59375 0.68359h0.003906c-0.16016-0.125-0.35547-0.19531-0.55859-0.19922-0.39844-0.003907-0.75781 0.23437-0.91406 0.59766-0.16016 0.36328-0.082031 0.78906 0.19141 1.0742l-0.54688 0.63281v0.003906c-0.1875-0.20312-0.44531-0.31641-0.71875-0.32031-0.55078 0.003906-0.99609 0.45312-0.99609 1 0.003906 0.32422 0.16797 0.62109 0.43359 0.80078l-0.59375 0.68359h0.003907c-0.17578-0.29688-0.49219-0.48438-0.83594-0.48828-0.46875 0.011719-0.86328 0.34375-0.95703 0.79688-0.09375 0.45703 0.14062 0.91797 0.5625 1.1133l-0.66406 0.76562c-0.12891-0.40625-0.50391-0.67969-0.92969-0.68359-0.55078 0.003906-0.99609 0.44922-0.99609 1 0.003906 0.47656 0.35156 0.88672 0.82422 0.96094l-0.83594 0.96875c-0.027344-0.39453-0.28516-0.73438-0.65625-0.86328-0.37109-0.13281-0.78516-0.03125-1.0547 0.25781-0.26953 0.28906-0.33984 0.71094-0.17969 1.0742 0.16016 0.35937 0.51562 0.58984 0.91016 0.58984 0.027343 0 0.050781-0.015625 0.078124-0.015625l-1.1328 1.3008c0.035156-0.09375 0.054688-0.19531 0.058594-0.30078 0-0.39844-0.24609-0.76172-0.61719-0.91406-0.37109-0.14844-0.79688-0.0625-1.082 0.22266-0.28125 0.28516-0.36719 0.71094-0.21094 1.082 0.15234 0.37109 0.51562 0.60938 0.91797 0.60938 0.14453 0 0.28516-0.035156 0.41406-0.097656zm25.836-29.871-6.8906 7.9648h-6.3867l5.9258-7.9648zm-35.773 12.945c-0.40234-0.003907-0.76953 0.23828-0.92578 0.61328-0.16016 0.37109-0.074219 0.80469 0.21094 1.0898 0.28516 0.28906 0.71484 0.375 1.0898 0.21875 0.375-0.15234 0.62109-0.51953 0.62109-0.92187 0-0.26563-0.10547-0.51953-0.28906-0.70703-0.1875-0.1875-0.44141-0.29297-0.70703-0.29297zm3.9766 1.9883c0.40234 0.003906 0.76953-0.23828 0.92578-0.61328 0.16016-0.37109 0.074218-0.80469-0.21094-1.0898-0.28516-0.28906-0.71484-0.375-1.0898-0.21875-0.375 0.15234-0.62109 0.51953-0.62109 0.92188 0 0.26562 0.10547 0.51953 0.28906 0.70703 0.1875 0.1875 0.44141 0.29297 0.70703 0.29297zm3.9766 0h-0.003906c0.40625 0.003906 0.77344-0.23828 0.92969-0.61328 0.15625-0.37109 0.074219-0.80469-0.21484-1.0898-0.28516-0.28906-0.71484-0.375-1.0898-0.21875-0.375 0.15234-0.61719 0.51953-0.61719 0.92188 0 0.26562 0.10156 0.51953 0.28906 0.70703s0.44141 0.29297 0.70312 0.29297zm3.9766 0h-0.003907c0.40625 0.003906 0.76953-0.23828 0.92969-0.61328 0.15625-0.37109 0.070312-0.80469-0.21484-1.0898-0.28516-0.28906-0.71484-0.375-1.0898-0.21875-0.375 0.15234-0.61719 0.51953-0.61719 0.92188-0.003906 0.26562 0.10156 0.51953 0.28906 0.70703 0.18359 0.1875 0.4375 0.29297 0.70312 0.29297zm3.9766 0h-0.003906c0.40234 0.003906 0.76953-0.23828 0.92578-0.61328 0.15625-0.37109 0.074219-0.80469-0.21094-1.0898-0.28516-0.28906-0.71875-0.375-1.0898-0.21875-0.375 0.15234-0.62109 0.51953-0.62109 0.92188 0 0.26562 0.10156 0.51953 0.28906 0.70703s0.44141 0.29297 0.70703 0.29297zm3.9766 0h-0.007812c0.40625 0.003906 0.77344-0.23828 0.92969-0.61328 0.15625-0.37109 0.070312-0.80469-0.21484-1.0898-0.28516-0.28906-0.71484-0.375-1.0898-0.21875-0.375 0.15234-0.61719 0.51953-0.61719 0.92188-0.003906 0.26562 0.10156 0.51953 0.28906 0.70703s0.4375 0.29297 0.70312 0.29297zm-15.898 1.9922h-0.007813c-0.40625-0.003906-0.77344 0.23828-0.92969 0.61328-0.15625 0.37109-0.070313 0.80469 0.21484 1.0898 0.28516 0.28906 0.71484 0.375 1.0898 0.22266 0.375-0.15625 0.61719-0.51953 0.61719-0.92578 0-0.26562-0.10156-0.51953-0.28906-0.70703s-0.44141-0.29297-0.70313-0.29297zm3.9766 1.9922h-0.011719c0.40625 0 0.77344-0.24219 0.92969-0.61328 0.15625-0.375 0.074219-0.80469-0.21484-1.0938-0.28516-0.28516-0.71484-0.375-1.0898-0.21875-0.375 0.15234-0.61719 0.51953-0.61719 0.92578-0.003906 0.26172 0.10156 0.51953 0.28906 0.70703s0.44141 0.29297 0.70312 0.29297zm3.9766 0h-0.011719c0.40625 0 0.76953-0.24219 0.92969-0.61328 0.15625-0.375 0.070312-0.80469-0.21484-1.0938-0.28516-0.28516-0.71484-0.375-1.0898-0.21875-0.375 0.15234-0.61719 0.51953-0.61719 0.92578-0.003906 0.26172 0.10156 0.51953 0.28516 0.70703 0.1875 0.1875 0.44141 0.29297 0.70703 0.29297zm-5.9609 0h-0.011718c-0.40625-0.003906-0.77344 0.23828-0.92969 0.61328-0.15625 0.37109-0.070312 0.80469 0.21484 1.0898 0.28516 0.28906 0.71484 0.375 1.0898 0.21875 0.375-0.15234 0.61719-0.51953 0.61719-0.92188 0-0.26562-0.10156-0.51953-0.28906-0.70703s-0.44141-0.29297-0.70703-0.29297zm3.9766 0h-0.015625c-0.40234-0.003906-0.76953 0.23828-0.92578 0.61328-0.15625 0.37109-0.074219 0.80469 0.21094 1.0898 0.28516 0.28906 0.71875 0.375 1.0898 0.21875 0.375-0.15234 0.62109-0.51953 0.62109-0.92188 0-0.26562-0.10547-0.51953-0.29297-0.70703-0.18359-0.1875-0.4375-0.29297-0.70312-0.29297zm5.9609-1.9922h-0.011718c-0.40625-0.003906-0.77344 0.23828-0.92969 0.61328-0.15625 0.37109-0.074218 0.80469 0.21094 1.0898 0.28906 0.28906 0.71875 0.375 1.0938 0.22266 0.375-0.15625 0.61719-0.51953 0.61719-0.92578 0-0.26562-0.10156-0.51953-0.28906-0.70703s-0.44141-0.29297-0.70312-0.29297zm-1.9883 1.9922h-0.011719c-0.40625-0.003906-0.77344 0.23828-0.92969 0.61328-0.15625 0.37109-0.070313 0.80469 0.21484 1.0898 0.28516 0.28906 0.71484 0.375 1.0898 0.21875 0.375-0.15234 0.61719-0.51953 0.61719-0.92188 0.003906-0.26562-0.10156-0.51953-0.28906-0.70703s-0.44141-0.29297-0.70313-0.29297zm-5.9609 3.9844-0.011719-0.003907c0.40234 0.003907 0.76953-0.23828 0.92578-0.61328 0.15625-0.37109 0.074219-0.80469-0.21094-1.0898-0.28516-0.28906-0.71875-0.375-1.0898-0.21875-0.375 0.15234-0.62109 0.51953-0.62109 0.92187 0 0.26563 0.10156 0.51953 0.28906 0.70703s0.44141 0.29688 0.70312 0.29688zm3.9766-1.9922h-0.015625c-0.40234-0.003906-0.76953 0.23828-0.92578 0.61328-0.15625 0.37109-0.074219 0.80078 0.21094 1.0898 0.28516 0.28906 0.71484 0.375 1.0898 0.21875 0.375-0.15234 0.62109-0.51953 0.62109-0.92188 0-0.26562-0.10547-0.51953-0.29297-0.70703-0.18359-0.1875-0.4375-0.29297-0.70312-0.29297zm-9.9531-5.9766c-0.40625 0-0.77344 0.24219-0.92969 0.61328-0.15625 0.375-0.070313 0.80469 0.21484 1.0938 0.28516 0.28516 0.71484 0.37109 1.0898 0.21875 0.375-0.15625 0.61719-0.51953 0.61719-0.92578 0.003906-0.26562-0.10156-0.51953-0.28906-0.70703-0.18359-0.1875-0.4375-0.29297-0.70312-0.29297zm3.9766 1.9922h-0.003906c0.40625 0.003906 0.77344-0.23828 0.92969-0.61328s0.074219-0.80469-0.21094-1.0938c-0.28906-0.28516-0.71875-0.37109-1.0938-0.21875-0.37109 0.15625-0.61719 0.51953-0.61719 0.92578 0 0.26562 0.10156 0.51953 0.28906 0.70703s0.44141 0.29297 0.70313 0.29297zm3.9766 0h-0.003906c0.40625 0.003906 0.77344-0.23828 0.92969-0.61328s0.070312-0.80469-0.21484-1.0938c-0.28516-0.28516-0.71484-0.37109-1.0898-0.21875-0.375 0.15625-0.61719 0.51953-0.61719 0.92578-0.003906 0.26562 0.10156 0.51953 0.28516 0.70703 0.1875 0.1875 0.44141 0.29297 0.70703 0.29297zm3.9766 0h-0.003907c0.40234 0.003906 0.76953-0.23828 0.92578-0.61328s0.074218-0.80469-0.21094-1.0938c-0.28516-0.28516-0.71875-0.37109-1.0898-0.21875-0.375 0.15625-0.62109 0.51953-0.62109 0.92578 0 0.26562 0.10156 0.51953 0.28906 0.70703s0.44141 0.29297 0.70703 0.29297zm3.9766 0h-0.007812c0.40625 0.003906 0.77344-0.23828 0.92969-0.61328s0.070313-0.80469-0.21484-1.0938c-0.28516-0.28516-0.71484-0.37109-1.0898-0.21875-0.375 0.15625-0.61719 0.51953-0.61719 0.92578-0.003906 0.26562 0.10156 0.51953 0.28906 0.70703 0.18359 0.1875 0.4375 0.29297 0.70312 0.29297zm-9.9375 7.9648h-0.007812c-0.40234-0.003906-0.76953 0.23828-0.92578 0.61328s-0.074219 0.80469 0.21094 1.0898c0.28516 0.28906 0.71875 0.375 1.0898 0.22266 0.375-0.15625 0.62109-0.51953 0.62109-0.92578 0-0.26562-0.10547-0.51953-0.28906-0.70703-0.1875-0.1875-0.44141-0.28906-0.70703-0.29297zm3.9766 0h-0.007813c-0.40625-0.003906-0.77344 0.23828-0.92969 0.61328s-0.070313 0.80469 0.21484 1.0898c0.28516 0.28906 0.71484 0.375 1.0898 0.22266 0.375-0.15625 0.61719-0.51953 0.61719-0.92578 0.003906-0.26562-0.10156-0.51953-0.28906-0.70703s-0.4375-0.28906-0.70312-0.29297zm-1.9961 1.9922c-0.40625 0-0.76953 0.24219-0.92969 0.61328-0.15625 0.375-0.070312 0.80469 0.21484 1.0938 0.28516 0.28516 0.71484 0.375 1.0898 0.21875 0.375-0.15234 0.62109-0.51953 0.62109-0.92578 0-0.26172-0.10547-0.51563-0.29297-0.70313-0.18359-0.1875-0.4375-0.29687-0.70312-0.29687zm0-1.9922v0.003906c0.40625 0 0.77344-0.24219 0.92969-0.61328 0.15625-0.375 0.070312-0.80469-0.21484-1.0938-0.28516-0.28516-0.71484-0.37109-1.0898-0.21875-0.375 0.15625-0.61719 0.51953-0.61719 0.92578-0.003906 0.26172 0.10156 0.51562 0.28906 0.70312 0.18359 0.1875 0.4375 0.29297 0.70312 0.29297z" fill-rule="evenodd"/>
</svg>