<svg xmlns="http://www.w3.org/2000/svg" fill="#c29f51" version="1.1" viewBox="-5.0 -10.0 110.0 135.0">
 <g>
  <path d="m70.805 36.055c2.6797 0 4.8516-2.1719 4.8516-4.8477s-2.1719-4.8477-4.8516-4.8477c-2.6758 0-4.8477 2.1719-4.8477 4.8477s2.1719 4.8477 4.8477 4.8477z"/>
  <path d="m75.781 37.379h-9.957c-1.7188 0-3.1094 1.3945-3.1094 3.1133v5.332c0 1.625 0.69922 4.0859 1.5586 5.4688l0.375 0.60547 0.19141 0.3125-1.9023 9.3164c0 1.2539 1.0156 2.2656 2.2656 2.2656h1.9102l0.27344 4.5078 0.17969 2.9414c0 1.3242 1.0742 2.4023 2.3984 2.4023h1.6797c1.3242 0 2.3984-1.0742 2.3984-2.4023l0.17969-2.9453v-0.003906l0.27344-4.5h1.9141c1.2539 0 2.2656-1.0117 2.2656-2.2656l-1.9062-9.3203 0.19141-0.30859 0.375-0.60547c0.85547-1.3828 1.5586-3.8438 1.5586-5.4688v-5.332c0-1.7227-1.3906-3.1133-3.1133-3.1133z"/>
  <path d="m49.996 32.07c3.4453 0 6.2344-2.793 6.2344-6.2344 0-3.4414-2.7891-6.2344-6.2344-6.2344-3.4414 0-6.2344 2.793-6.2344 6.2344 0.003906 3.4414 2.793 6.2344 6.2344 6.2344z"/>
  <path d="m56.398 33.77h-12.805c-2.207 0-4 1.793-4 4.0039v6.8594c0 2.0898 0.89844 5.2539 2.0039 7.0273l0.96875 1.5625c1.1016 1.7734 2.1055 4.9336 2.2305 7.0195l0.40234 6.6406 0.40234 6.6484 0.23047 3.7812c0 1.7031 1.3828 3.0898 3.0859 3.0898h2.1562c1.7031 0 3.0859-1.3828 3.0859-3.0898l0.23047-3.7891v-0.003907l0.40234-6.6367 0.40234-6.6406c0.12891-2.0859 1.1328-5.2461 2.2305-7.0195l0.96875-1.5625c1.1016-1.7773 2-4.9375 2-7.0312v-6.8594c0.007813-2.207-1.7812-4-3.9961-4z"/>
  <path d="m29.191 36.055c2.6797 0 4.8477-2.1719 4.8477-4.8477s-2.168-4.8477-4.8477-4.8477c-2.6758 0-4.8477 2.1719-4.8477 4.8477s2.1719 4.8477 4.8477 4.8477z"/>
  <path d="m34.172 37.379h-9.957c-1.7188 0-3.1094 1.3945-3.1094 3.1133v5.332c0 1.625 0.69922 4.0859 1.5586 5.4648l0.375 0.60547 0.37891 0.60547c0.85547 1.3828 1.6367 3.8398 1.7344 5.4609l0.3125 5.1641 0.3125 5.1719 0.17969 2.9414c0 1.3242 1.0742 2.4023 2.3984 2.4023h1.6797c1.3242 0 2.3984-1.0742 2.3984-2.4023l0.17969-2.9453v-0.003907l0.3125-5.1602 0.3125-5.1641c0.097657-1.6211 0.87891-4.0781 1.7344-5.4609l0.75-1.2109c0.85547-1.3828 1.5586-3.8438 1.5586-5.4688v-5.332c0.003906-1.7227-1.3867-3.1133-3.1094-3.1133z"/>
  <path d="m10.777 38.453c1.9141 0 3.4648-1.5508 3.4648-3.4648 0-1.9102-1.5508-3.4648-3.4648-3.4648-1.9102 0-3.4609 1.5508-3.4609 3.4648 0 1.9141 1.5508 3.4648 3.4609 3.4648z"/>
  <path d="m14.336 39.395h-7.1133c-1.2266 0-2.2227 0.99609-2.2227 2.2266v3.8086c0 1.1602 0.5 2.918 1.1133 3.9062l0.26953 0.43359 0.13672 0.22266-1.3594 6.6562c0 0.89453 0.72266 1.6172 1.6172 1.6172h1.3672l0.19531 3.2227 0.12891 2.1016c0 0.94531 0.76953 1.7148 1.7148 1.7148h1.1992c0.94531 0 1.7148-0.76953 1.7148-1.7148l0.12891-2.1055v-0.003906l0.19531-3.2148h1.3672c0.89453 0 1.6172-0.72266 1.6172-1.6172l-1.3594-6.6562 0.13672-0.21875 0.26953-0.43359c0.60938-0.98438 1.1133-2.7461 1.1133-3.9062v-3.8086c-0.007812-1.2305-1.0039-2.2305-2.2305-2.2305z"/>
  <path d="m89.219 38.453c1.9141 0 3.4648-1.5508 3.4648-3.4648 0-1.9141-1.5508-3.4648-3.4648-3.4648-1.9102 0-3.4609 1.5508-3.4609 3.4648 0 1.9102 1.5508 3.4648 3.4609 3.4648z"/>
  <path d="m92.777 39.395h-7.1133c-1.2266 0-2.2227 0.99609-2.2227 2.2266v3.8086c0 1.1602 0.5 2.918 1.1133 3.9023l0.53906 0.86719c0.61328 0.98828 1.1719 2.7422 1.2383 3.8984l0.22656 3.6875 0.22656 3.6914 0.12891 2.1016c0 0.94922 0.76953 1.7148 1.7148 1.7148h1.1953c0.94531 0 1.7148-0.76953 1.7148-1.7148l0.12891-2.1055v-0.003906l0.22266-3.6875 0.22656-3.6875c0.070312-1.1562 0.62891-2.9141 1.2383-3.8984l0.53906-0.86719c0.60938-0.98438 1.1094-2.7422 1.1094-3.9062v-3.8086c-0.003906-1.2227-0.99609-2.2188-2.2266-2.2188z"/>
 </g></svg>