<svg fill="#c29f51" xmlns="http://www.w3.org/2000/svg" version="1.1" viewBox="-5.0 -10.0 110.0 135.0">
 <path d="m31.25 73.145c0 2.0508 1.6602 3.7109 3.7109 3.7109 2.0508 0 3.7109-1.6602 3.7109-3.7109 0-6.2578 5.0703-11.328 11.328-11.328s11.328 5.0703 11.328 11.328c0 2.0508 1.6602 3.7109 3.7109 3.7109 2.0508 0 3.7109-1.6602 3.7109-3.7109 0-6.6992-3.5742-12.887-9.375-16.238-5.8008-3.3477-12.949-3.3477-18.75 0-5.8008 3.3516-9.375 9.5391-9.375 16.238z"/>
 <path d="m76.953 73.145c0 2.0508 1.6602 3.7109 3.7109 3.7109 2.0508 0 3.7109-1.6602 3.7109-3.7109 0-18.957-15.43-34.375-34.375-34.375s-34.375 15.43-34.375 34.375c0 2.0508 1.6602 3.7109 3.7109 3.7109 2.0508 0 3.7109-1.6602 3.7109-3.7109 0-14.859 12.09-26.953 26.953-26.953s26.953 12.094 26.953 26.953z"/>
 <path d="m96.289 76.855c2.0508 0 3.7109-1.6602 3.7109-3.7109-0.003906-13.258-5.2695-25.977-14.648-35.352-9.375-9.375-22.09-14.641-35.352-14.641-13.258 0-25.977 5.2656-35.352 14.641-9.4062 9.3555-14.684 22.086-14.648 35.352 0 2.0508 1.6602 3.7109 3.7109 3.7109 2.0508 0 3.7109-1.6602 3.7109-3.7109 0-11.293 4.4883-22.121 12.473-30.105 7.9844-7.9844 18.812-12.469 30.105-12.469s22.121 4.4844 30.105 12.469c8.0117 7.9648 12.504 18.809 12.473 30.105 0 2.0508 1.6602 3.7109 3.7109 3.7109z"/>
</svg>