<svg xmlns="http://www.w3.org/2000/svg" version="1.1" viewBox="-5.0 -10.0 110.0 135.0">
 <path d="m97.059 25.199c0 2.4102-0.94141 4.6758-2.6484 6.3828l-49.605 49.605c-1.707 1.707-3.9688 2.6484-6.3828 2.6484-2.1875 0-4.3008-0.79297-5.9453-2.2344l-26.453-23.156c-3.7461-3.2773-4.1289-8.9922-0.85156-12.734 1.7109-1.9648 4.1953-3.0898 6.8008-3.0898 2.1836 0 4.293 0.79297 5.9414 2.2344l20.102 17.582 43.633-43.625c1.707-1.707 3.9688-2.6484 6.3828-2.6484 2.4102 0 4.6758 0.94141 6.3828 2.6484 1.707 1.707 2.6484 3.9688 2.6484 6.3867z"/></svg>